HIERARCHY
ROOT Hips
{
    OFFSET 0.000000 0.000000 0.000000
    CHANNELS 6 Xposition Yposition Zposition Zrotation Xrotation Yrotation
    JOINT Spine
    {
        OFFSET -0.000000 7.246840 0.000000
        CHANNELS 3 Zrotation Xrotation Yrotation
        JOINT Spine1
        {
            OFFSET -0.000000 20.289354 0.000000
            CHANNELS 3 Zrotation Xrotation Yrotation
            JOINT Neck
            {
                OFFSET -0.000000 20.206032 1.836912
                CHANNELS 3 Zrotation Xrotation Yrotation
                JOINT Head
                {
                    OFFSET -0.000000 12.372654 -1.767522
                    CHANNELS 3 Zrotation Xrotation Yrotation
                    End Site
                    {
                        OFFSET -0.000000 22.094025 0.000000
                    }
                }
            }
            JOINT LeftShoulder
            {
                OFFSET 3.465871 17.201674 -0.568930
                CHANNELS 3 Zrotation Xrotation Yrotation
                JOINT LeftArm
                {
                    OFFSET 14.070313 0.000000 0.000000
                    CHANNELS 3 Zrotation Xrotation Yrotation
                    JOINT LeftForeArm
                    {
                        OFFSET 26.549477 0.000000 0.000000
                        CHANNELS 3 Zrotation Xrotation Yrotation
                        JOINT LeftHand
                        {
                            OFFSET 18.880413 0.000000 0.000000
                            CHANNELS 3 Zrotation Xrotation Yrotation
                            End Site
                            {
                                OFFSET 13.256415 0.000000 0.000000
                            }
                        }
                    }
                }
            }
            JOINT RightShoulder
            {
                OFFSET -3.526370 17.201674 -0.568930
                CHANNELS 3 Zrotation Xrotation Yrotation
                JOINT RightArm
                {
                    OFFSET -14.070313 0.000000 0.000000
                    CHANNELS 3 Zrotation Xrotation Yrotation
                    JOINT RightForeArm
                    {
                        OFFSET -26.549477 0.000000 0.000000
                        CHANNELS 3 Zrotation Xrotation Yrotation
                        JOINT RightHand
                        {
                            OFFSET -18.880413 0.000000 0.000000
                            CHANNELS 3 Zrotation Xrotation Yrotation
                            End Site
                            {
                                OFFSET -13.256415 0.000000 0.000000
                            }
                        }
                    }
                }
            }
        }
    }
    JOINT LeftUpLeg
    {
        OFFSET 8.837609 0.000000 0.000000
        CHANNELS 3 Zrotation Xrotation Yrotation
        JOINT LeftLeg
        {
            OFFSET -0.000000 -41.345005 0.000000
            CHANNELS 3 Zrotation Xrotation Yrotation
            JOINT LeftFoot
            {
                OFFSET -0.000000 -35.500874 0.000000
                CHANNELS 3 Zrotation Xrotation Yrotation
                JOINT LeftToeBase
                {
                    OFFSET -0.000000 -5.744446 13.256415
                    CHANNELS 3 Zrotation Xrotation Yrotation
                    End Site
                    {
                        OFFSET -0.000000 0.000000 3.535044
                    }
                }
            }
        }
    }
    JOINT RightUpLeg
    {
        OFFSET -8.837609 0.000000 0.000000
        CHANNELS 3 Zrotation Xrotation Yrotation
        JOINT RightLeg
        {
            OFFSET -0.000000 -41.345005 0.000000
            CHANNELS 3 Zrotation Xrotation Yrotation
            JOINT RightFoot
            {
                OFFSET -0.000000 -35.500874 0.000000
                CHANNELS 3 Zrotation Xrotation Yrotation
                JOINT RightToeBase
                {
                    OFFSET -0.000000 -5.744446 13.256415
                    CHANNELS 3 Zrotation Xrotation Yrotation
                    End Site
                    {
                        OFFSET -0.000000 0.000000 3.535044
                    }
                }
            }
        }
    }
}
MOTION
Frames:    10
Frame Time:    0.010000
3.084607    81.609329    -7.265467    1.937582    4.528338    -2.278932    -4.710887    -17.165974    -1.495106    0.766535    10.004350    -0.850872    1.568934    26.793423    -1.478093    1.541756    -9.493896    -1.032465    11.958644    5.672822    9.834558    -1.880829    87.950142    -57.202377    12.932292    4.370172    -74.876472    38.989677    -0.049848    -38.879551    -11.590265    7.423349    8.946940    103.853996    83.766296    -51.011974    -18.094097    -6.449752    79.631409    -42.432358    -8.028895    41.314232    -4.176708    8.046163    -0.299729    -1.989193    -11.639235    -4.755660    5.863922    1.386713    -1.192372    0.084223    -1.671301    -0.119110    -5.781245    5.232713    4.948999    9.440731    -11.808158    3.898471    -2.881824    0.290937    -6.832451    -1.007114    -0.660806    1.818980    
3.093812    81.655754    -7.287103    1.905384    4.474441    -2.485590    -4.540540    -17.150240    -1.372831    0.622209    10.000943    -0.742231    1.589399    26.911085    -1.456571    1.656529    -9.658766    -0.978170    11.976305    5.717706    9.747166    -6.282113    87.823090    -52.703571    12.938376    4.382003    -74.939987    38.774937    0.137739    -38.698097    -11.668615    7.416780    9.051278    105.273132    84.084702    -52.427353    -17.828108    -6.325327    79.863235    -42.740147    -8.032078    40.927010    -4.210343    8.011117    -0.202145    -1.894118    -11.489997    -4.623523    5.789164    1.365815    -1.179252    0.088955    -1.702122    -0.125826    -5.674041    5.119230    4.775414    9.338401    -11.543270    3.950086    -2.857129    0.288454    -6.567236    -0.984006    -0.661128    1.777255    
3.101266    81.698570    -7.314402    1.868479    4.397127    -2.684017    -4.462189    -17.014067    -1.313835    0.621411    9.880925    -0.699821    1.637978    26.992128    -1.446203    1.591081    -9.731730    -0.974706    11.943622    5.814591    9.794804    -11.187160    87.640671    -47.746212    12.869952    4.538754    -74.960236    38.234657    0.515823    -38.559830    -11.812964    7.406259    9.240540    106.718613    84.289001    -53.893337    -17.570684    -6.204737    80.097900    -42.953403    -8.051080    40.675632    -4.240941    7.995156    -0.030281    -1.805526    -11.333199    -4.677368    5.828549    1.423992    -0.995513    0.170419    -1.916630    -0.241377    -5.547388    5.030758    4.568714    9.215065    -11.280685    3.954338    -2.739817    0.249477    -6.303232    -1.018064    -0.585821    1.837248    
3.106160    81.736305    -7.341777    1.832288    4.302607    -2.853938    -4.364378    -16.859064    -1.241647    0.571836    9.792170    -0.643579    1.637989    27.023998    -1.429719    1.669148    -9.793948    -0.938596    11.929535    5.874622    9.783567    -14.795484    87.527885    -44.073471    12.893810    4.565383    -74.924118    37.970364    0.600756    -38.710125    -11.928961    7.404140    9.352291    108.006859    84.470886    -55.183868    -17.384304    -6.094877    80.334511    -43.164715    -7.993530    40.370171    -4.265122    8.018904    0.154529    -1.748325    -11.222866    -4.599679    5.793723    1.463850    -1.149945    0.112015    -1.942900    -0.158680    -5.420927    4.976424    4.306569    9.097008    -11.035163    4.030777    -2.710790    0.248165    -6.035589    -1.003481    -0.626172    1.811732    
3.117318    81.769943    -7.361005    1.819496    4.176595    -3.007676    -4.276203    -16.679035    -1.168823    0.461406    9.740581    -0.580983    1.745004    27.006823    -1.443011    1.683414    -9.852417    -0.937401    11.981680    5.886266    9.752744    -17.852612    87.509186    -41.001945    12.932142    4.516645    -74.908516    38.160717    0.477139    -38.775856    -11.982301    7.403440    9.412013    109.064476    84.631218    -56.262733    -17.182846    -5.994680    80.573074    -43.350330    -7.938553    40.045555    -4.339679    8.067234    0.375323    -1.662066    -11.087479    -4.520209    5.805728    1.410141    -1.237254    0.122337    -1.950585    -0.173311    -5.338654    4.976731    4.089886    9.000514    -10.826702    4.087316    -2.646202    0.221172    -5.825156    -1.014633    -0.580077    1.830944    
3.119963    81.794258    -7.393255    1.779837    4.103406    -3.105407    -4.188493    -16.523897    -1.118716    0.377756    9.687573    -0.542380    1.850574    26.938786    -1.486684    1.695119    -9.898743    -0.969719    12.002173    5.900359    9.695098    -20.431591    87.485962    -38.379566    12.965144    4.523170    -74.895493    38.092777    0.537337    -38.768120    -12.045242    7.431974    9.406582    109.669891    84.788078    -56.858833    -17.040443    -5.909138    80.757675    -43.455750    -7.862081    39.798588    -4.318265    8.068269    0.513421    -1.679689    -10.979417    -4.499520    5.804017    1.373660    -1.257241    0.132831    -1.941209    -0.188166    -5.225163    4.937761    3.845962    8.906882    -10.638605    4.168977    -2.574001    0.199294    -5.640903    -1.008229    -0.520606    1.818208    
3.122710    81.809967    -7.425653    1.745646    4.034081    -3.180565    -4.104959    -16.384954    -1.082136    0.273070    9.695173    -0.514143    1.952816    26.763710    -1.489690    1.729885    -9.901013    -0.957768    12.012724    5.916431    9.659473    -21.393843    87.511864    -37.352211    13.063741    4.448753    -74.880638    38.054161    0.554090    -38.763981    -12.074572    7.412705    9.377698    110.394356    84.933685    -57.558521    -16.930090    -5.843791    80.865974    -43.540207    -7.843513    39.671764    -4.308006    8.065172    0.674083    -1.676582    -10.872565    -4.510710    5.789834    1.324600    -1.312556    0.116892    -1.959709    -0.165606    -5.137328    4.916546    3.656812    8.834853    -10.496776    4.229757    -3.018122    0.396200    -5.185302    -0.578599    -1.139381    1.050576    
3.127647    81.818512    -7.457971    1.717851    3.983943    -3.232442    -4.048645    -16.271936    -1.082341    0.194707    9.727947    -0.519933    2.009377    26.612551    -1.472595    1.799544    -9.991922    -0.920090    12.006260    5.928586    9.660873    -23.048826    87.531288    -35.649738    13.175325    4.402455    -74.851395    38.045849    0.583711    -38.787182    -12.104111    7.403640    9.359750    111.222038    85.125641    -58.353622    -16.865433    -5.832483    80.906815    -43.713760    -7.891805    39.540661    -4.294508    8.051423    0.866000    -1.679413    -10.782198    -4.682246    5.786694    1.265711    -1.121590    0.202408    -1.949204    -0.286743    -5.078013    4.893514    3.515171    8.754896    -10.330110    4.347464    -2.963864    0.328440    -5.160445    -0.573361    -1.178042    1.041510    
3.139367    81.819489    -7.487758    1.703262    3.939369    -3.273638    -4.042982    -16.224907    -1.106170    0.175042    9.878567    -0.544923    2.044424    26.429951    -1.469053    1.876288    -10.131582    -0.896934    11.973483    5.944417    9.676912    -24.437328    87.519264    -34.248104    13.278988    4.344010    -74.844658    38.111397    0.591223    -38.755322    -12.129336    7.331383    9.365602    112.147888    85.276482    -59.257023    -16.874495    -5.858517    80.861320    -43.881760    -7.985288    39.525009    -4.284505    8.054587    1.012990    -1.739543    -10.726247    -4.675278    5.798015    1.207974    -1.244950    0.193328    -1.962364    -0.273901    -5.064776    4.892878    3.468331    8.736199    -10.275473    4.414229    -2.903077    0.309334    -5.173522    -0.603863    -1.099784    1.095967    
3.150233    81.813644    -7.517818    1.691416    3.915421    -3.303017    -4.052300    -16.267305    -1.160474    0.143269    10.139573    -0.593831    2.048116    26.276480    -1.440338    2.014615    -10.373455    -0.834119    11.948659    5.964622    9.676082    -27.832293    87.441048    -30.849878    13.411009    4.274566    -74.829201    38.112694    0.598651    -38.813011    -12.092224    7.243304    9.420218    112.397827    85.412979    -59.537743    -16.941212    -5.900986    80.778099    -44.044582    -8.074634    39.557907    -4.272143    8.059180    1.140928    -1.766077    -10.727205    -4.731561    5.768391    1.147850    -1.302870    0.188328    -1.950637    -0.266797    -5.079024    4.891476    3.485638    8.773033    -10.289605    4.395733    -2.928354    0.351541    -5.128260    -0.597724    -1.121547    1.085086    
